<?xml version="1.0" standalone="no"?>
<!DOCTYPE svg PUBLIC "-//W3C//DTD SVG 20010904//EN"
 "http://www.w3.org/TR/2001/REC-SVG-20010904/DTD/svg10.dtd">
<svg version="1.0" xmlns="http://www.w3.org/2000/svg"
 width="500.000000pt" height="500.000000pt" viewBox="0 0 500.000000 500.000000"
 preserveAspectRatio="xMidYMid meet">
<metadata>
Created by potrace 1.14, written by Peter Selinger 2001-2017
</metadata>
<g transform="translate(0.000000,500.000000) scale(0.100000,-0.100000)"
fill="#000000" stroke="none">
<path d="M1517 3424 c-1 -1 -31 -5 -67 -8 -36 -4 -83 -12 -105 -17 -22 -6 -49
-13 -60 -15 -11 -2 -29 -8 -40 -12 -64 -29 -91 -39 -95 -38 -11 2 -117 -80
-158 -124 -50 -52 -76 -99 -107 -190 -27 -79 -28 -235 -2 -315 32 -100 129
-210 236 -269 56 -30 210 -85 326 -116 44 -12 87 -23 95 -25 8 -3 60 -16 115
-30 126 -33 258 -77 310 -104 70 -37 142 -107 172 -168 25 -52 28 -68 27 -158
0 -89 -3 -106 -27 -151 -61 -115 -184 -197 -342 -231 -102 -22 -331 -24 -430
-3 -38 8 -72 15 -75 15 -3 0 -30 9 -60 19 -129 44 -273 124 -327 184 -27 30
-37 24 -73 -42 l-24 -45 29 -31 c76 -80 253 -169 425 -214 238 -63 540 -49
725 35 28 12 53 22 58 21 4 -1 7 2 7 8 0 5 5 10 10 10 18 0 72 42 128 99 102
105 152 260 131 406 -20 132 -43 179 -126 262 -94 93 -194 139 -483 219 -69
19 -132 37 -140 39 -8 1 -33 8 -55 14 -22 6 -44 11 -50 12 -27 5 -205 68 -235
84 -87 44 -152 108 -188 185 -33 69 -36 188 -7 265 74 201 274 298 596 291 69
-2 130 -6 135 -9 5 -3 30 -8 54 -12 51 -8 168 -47 220 -74 19 -10 58 -31 87
-46 29 -16 53 -27 55 -25 2 3 15 30 30 60 l27 55 -32 19 c-18 11 -35 24 -38
29 -3 4 -12 10 -20 11 -8 2 -44 17 -80 34 -73 34 -231 77 -324 88 -52 6 -223
12 -228 8z"/>
<path d="M2843 3345 c0 -38 5 -65 11 -66 6 0 310 -1 676 -2 l665 0 3 66 3 67
-680 0 -679 0 1 -65z"/>
<path d="M2842 2377 l1 -62 676 0 676 0 3 63 3 62 -680 0 -679 0 0 -63z"/>
<path d="M2845 1439 c-2 -3 -4 -33 -4 -67 l1 -62 679 0 679 0 0 65 c0 36 -3
65 -7 66 -39 4 -1346 3 -1348 -2z"/>
</g>
</svg>
