<?xml version="1.0" standalone="no"?>
<!DOCTYPE svg PUBLIC "-//W3C//DTD SVG 20010904//EN"
 "http://www.w3.org/TR/2001/REC-SVG-20010904/DTD/svg10.dtd">
<svg version="1.0" xmlns="http://www.w3.org/2000/svg"
 width="384.000000pt" height="384.000000pt" viewBox="0 0 384.000000 384.000000"
 preserveAspectRatio="xMidYMid meet">
<metadata>
Created by potrace 1.14, written by Peter Selinger 2001-2017
</metadata>
<g transform="translate(0.000000,384.000000) scale(0.100000,-0.100000)"
fill="#000000" stroke="none">
<path d="M1105 2624 c-11 -2 -45 -9 -75 -15 -152 -31 -296 -138 -340 -256 -33
-88 -37 -193 -10 -272 55 -165 158 -227 545 -330 252 -68 299 -88 373 -162 45
-45 64 -92 65 -169 3 -91 -21 -147 -89 -209 -92 -84 -223 -118 -419 -108 -165
8 -341 72 -441 160 l-43 38 -27 -43 -27 -42 48 -44 c120 -108 327 -173 549
-172 144 0 235 18 333 64 172 82 256 234 231 418 -11 84 -38 136 -102 196 -82
77 -127 96 -481 195 -237 67 -270 81 -336 146 -62 61 -79 100 -79 187 0 110
61 205 167 261 78 41 156 57 288 56 134 0 233 -24 353 -84 48 -25 87 -38 92
-33 4 5 15 25 23 45 l15 36 -54 31 c-122 70 -294 113 -448 111 -50 -1 -100 -3
-111 -5z"/>
<path d="M2180 2570 l0 -50 526 0 525 0 -3 48 -3 47 -522 3 -523 2 0 -50z"/>
<path d="M2180 1825 l0 -45 525 0 525 0 0 45 0 45 -525 0 -525 0 0 -45z"/>
<path d="M2187 1103 c-4 -3 -7 -26 -7 -50 l0 -43 526 0 525 0 -3 48 -3 47
-516 3 c-283 1 -519 -1 -522 -5z"/>
</g>
</svg>
